# Blender 4.2.0
# www.blender.org
mtllib chess.mtl
o chess
v -4.750000 -0.250000 4.750000
v -4.750000 0.250000 4.750000
v -4.750000 -0.250000 -4.750000
v -4.750000 0.250000 -4.750000
v 4.750000 -0.250000 4.750000
v 4.750000 0.250000 4.750000
v 4.750000 -0.250000 -4.750000
v 4.750000 0.250000 -4.750000
vn -1.0000 -0.0000 -0.0000
vn -0.0000 -0.0000 -1.0000
vn 1.0000 -0.0000 -0.0000
vn -0.0000 -0.0000 1.0000
vn -0.0000 -1.0000 -0.0000
vn -0.0000 1.0000 -0.0000
vt 0.526316 0.500000
vt 0.500000 0.500000
vt 0.500000 -0.000000
vt 0.526316 -0.000000
vt 0.526316 1.000000
vt 0.500000 1.000000
vt 0.500000 0.500000
vt 0.526316 0.500000
vt 0.552632 0.500000
vt 0.526316 -0.000000
vt 0.552632 -0.000000
vt 0.552632 1.000000
vt 0.526316 1.000000
vt 0.552632 0.500000
vt 0.500000 0.000000
vt 0.500000 0.500000
vt 0.000000 0.500000
vt 0.000000 0.000000
vt 0.500000 0.500000
vt 0.500000 1.000000
vt -0.000000 1.000000
vt 0.000000 0.500000
s 0
usemtl chess
f 1/1/1 2/2/1 4/3/1 3/4/1
f 3/5/2 4/6/2 8/7/2 7/8/2
f 7/9/3 8/8/3 6/10/3 5/11/3
f 5/12/4 6/13/4 2/8/4 1/14/4
f 3/15/5 7/16/5 5/17/5 1/18/5
f 8/19/6 4/20/6 2/21/6 6/22/6
